<mxfile host="app.diagrams.net" agent="Mozilla/5.0 (Windows NT 10.0; Win64; x64; rv:130.0) Gecko/20100101 Firefox/130.0" version="24.7.14">
  <diagram name="Container Diagram - E-Commerce Platform" id="0">
    <mxGraphModel dx="2390" dy="1381" grid="1" gridSize="10" guides="1" tooltips="1" connect="1" arrows="1" fold="1" page="1" pageScale="1" pageWidth="850" pageHeight="1100" math="0" shadow="0">
      <root>
        <mxCell id="0" />
        <mxCell id="1" parent="0" />
        <mxCell id="customer-storefront" value="Customer Storefront (Next.js)" style="rounded=0;whiteSpace=wrap;html=1;fillColor=#BBDEFB;" parent="1" vertex="1">
          <mxGeometry x="180" y="60" width="160" height="80" as="geometry" />
        </mxCell>
        <mxCell id="admin-dashboard" value="Admin Dashboard" style="rounded=0;whiteSpace=wrap;html=1;fillColor=#BBDEFB;" parent="1" vertex="1">
          <mxGeometry x="400" y="60" width="160" height="80" as="geometry" />
        </mxCell>
        <mxCell id="mobile-app" value="Mobile App" style="rounded=0;whiteSpace=wrap;html=1;fillColor=#BBDEFB;" parent="1" vertex="1">
          <mxGeometry x="620" y="60" width="160" height="80" as="geometry" />
        </mxCell>
        <mxCell id="api-gateway" value="API Gateway" style="rounded=0;whiteSpace=wrap;html=1;fillColor=#FFEB3B;" parent="1" vertex="1">
          <mxGeometry x="320" y="180" width="160" height="80" as="geometry" />
        </mxCell>
        <mxCell id="store-management" value="Store Management Service" style="rounded=0;whiteSpace=wrap;html=1;fillColor=#C8E6C9;" parent="1" vertex="1">
          <mxGeometry x="320" y="320" width="160" height="80" as="geometry" />
        </mxCell>
        <mxCell id="product-management" value="Product Management Service" style="rounded=0;whiteSpace=wrap;html=1;fillColor=#C8E6C9;" parent="1" vertex="1">
          <mxGeometry x="1120" y="320" width="160" height="80" as="geometry" />
        </mxCell>
        <mxCell id="order-management" value="Order Management Service" style="rounded=0;whiteSpace=wrap;html=1;fillColor=#C8E6C9;" parent="1" vertex="1">
          <mxGeometry x="1520" y="320" width="160" height="80" as="geometry" />
        </mxCell>
        <mxCell id="user-management" value="User Management Service" style="rounded=0;whiteSpace=wrap;html=1;fillColor=#C8E6C9;" parent="1" vertex="1">
          <mxGeometry x="-80" y="320" width="160" height="80" as="geometry" />
        </mxCell>
        <mxCell id="payment-service" value="Payment Service" style="rounded=0;whiteSpace=wrap;html=1;fillColor=#C8E6C9;" parent="1" vertex="1">
          <mxGeometry x="720" y="320" width="160" height="80" as="geometry" />
        </mxCell>
        <mxCell id="edge1" style="edgeStyle=orthogonalEdgeStyle;rounded=0;orthogonalLoop=1;jettySize=auto;html=1;exitX=0.5;exitY=1;exitDx=0;exitDy=0;entryX=0.5;entryY=0;entryDx=0;entryDy=0;" parent="1" source="customer-storefront" target="api-gateway" edge="1">
          <mxGeometry relative="1" as="geometry" />
        </mxCell>
        <mxCell id="edge2" style="edgeStyle=orthogonalEdgeStyle;rounded=0;orthogonalLoop=1;jettySize=auto;html=1;exitX=0.5;exitY=1;exitDx=0;exitDy=0;entryX=0.5;entryY=0;entryDx=0;entryDy=0;" parent="1" source="admin-dashboard" target="api-gateway" edge="1">
          <mxGeometry relative="1" as="geometry" />
        </mxCell>
        <mxCell id="edge3" style="edgeStyle=orthogonalEdgeStyle;rounded=0;orthogonalLoop=1;jettySize=auto;html=1;exitX=0.5;exitY=1;exitDx=0;exitDy=0;entryX=0.5;entryY=0;entryDx=0;entryDy=0;" parent="1" source="mobile-app" target="api-gateway" edge="1">
          <mxGeometry relative="1" as="geometry" />
        </mxCell>
        <mxCell id="edge4" style="edgeStyle=orthogonalEdgeStyle;rounded=0;orthogonalLoop=1;jettySize=auto;html=1;exitX=0.5;exitY=1;exitDx=0;exitDy=0;entryX=0.5;entryY=0;entryDx=0;entryDy=0;" parent="1" source="api-gateway" target="store-management" edge="1">
          <mxGeometry relative="1" as="geometry" />
        </mxCell>
        <mxCell id="edge5" style="edgeStyle=orthogonalEdgeStyle;rounded=0;orthogonalLoop=1;jettySize=auto;html=1;exitX=0.5;exitY=1;exitDx=0;exitDy=0;entryX=0.5;entryY=0;entryDx=0;entryDy=0;" parent="1" source="api-gateway" target="product-management" edge="1">
          <mxGeometry relative="1" as="geometry" />
        </mxCell>
        <mxCell id="edge6" style="edgeStyle=orthogonalEdgeStyle;rounded=0;orthogonalLoop=1;jettySize=auto;html=1;exitX=0.5;exitY=1;exitDx=0;exitDy=0;entryX=0.5;entryY=0;entryDx=0;entryDy=0;" parent="1" source="api-gateway" target="order-management" edge="1">
          <mxGeometry relative="1" as="geometry" />
        </mxCell>
        <mxCell id="edge7" style="edgeStyle=orthogonalEdgeStyle;rounded=0;orthogonalLoop=1;jettySize=auto;html=1;exitX=0.5;exitY=1;exitDx=0;exitDy=0;entryX=0.5;entryY=0;entryDx=0;entryDy=0;" parent="1" source="api-gateway" target="user-management" edge="1">
          <mxGeometry relative="1" as="geometry" />
        </mxCell>
        <mxCell id="edge8" style="edgeStyle=orthogonalEdgeStyle;rounded=0;orthogonalLoop=1;jettySize=auto;html=1;exitX=0.5;exitY=1;exitDx=0;exitDy=0;entryX=0.5;entryY=0;entryDx=0;entryDy=0;" parent="1" source="api-gateway" target="payment-service" edge="1">
          <mxGeometry relative="1" as="geometry" />
        </mxCell>
      </root>
    </mxGraphModel>
  </diagram>
</mxfile>
